<svg width="176" height="202" viewBox="0 0 176 202" fill="none" xmlns="http://www.w3.org/2000/svg">
<path d="M140.877 144.254C131.22 175.219 93.5816 189.319 61.857 179.426C30.5281 169.656 13.0511 136.339 22.8209 105.01C32.6939 73.3501 60.6949 54.4257 91.7157 64.0995C107.856 69.133 117.135 74.1448 122.726 78.2236C127.032 81.3649 129.127 83.896 130.711 85.8114C131.192 86.3921 131.625 86.9162 132.059 87.3836C145.858 102.234 147.572 122.783 140.877 144.254Z" fill="#F87D5B" stroke="#1F1F1F" stroke-width="5"/>
<path d="M88.5491 83.2234C89.2373 84.4814 90.1666 85.5916 91.2839 86.4906C92.4011 87.3895 93.6846 88.0596 95.0608 88.4625C96.437 88.8655 97.8792 88.9934 99.3049 88.839C100.731 88.6846 102.112 88.251 103.37 87.5627C104.628 86.8745 105.738 85.9452 106.637 84.8279C107.536 83.7107 108.206 82.4273 108.609 81.051" stroke="#1F1F1F" stroke-width="3" stroke-linecap="round"/>
<path d="M79.5102 14.5396L88.5357 18.8455C108.973 28.5957 117.636 53.0672 107.886 73.5042L103.149 83.4322L94.124 79.1263C73.687 69.3762 65.0236 44.9047 74.7737 24.4677L79.5102 14.5396Z" fill="#74A60E" stroke="#1F1F1F" stroke-width="5"/>
<path d="M138.877 141.254C129.22 172.219 91.5816 186.319 59.857 176.426C28.5281 166.656 11.0511 133.339 20.8209 102.01C30.6939 70.3501 58.6949 51.4257 89.7157 61.0995C105.856 66.133 115.135 71.1448 120.726 75.2236C125.032 78.3649 127.127 80.896 128.711 82.8114C129.192 83.3921 129.625 83.9162 130.059 84.3836C143.858 99.234 145.572 119.783 138.877 141.254Z" fill="#F87D5B" stroke="#1F1F1F" stroke-width="5"/>
<path d="M86.5491 80.2234C87.2373 81.4814 88.1666 82.5916 89.2839 83.4906C90.4011 84.3895 91.6846 85.0596 93.0608 85.4625C94.437 85.8655 95.8792 85.9934 97.3049 85.839C98.7305 85.6846 100.112 85.251 101.37 84.5627C102.628 83.8745 103.738 82.9452 104.637 81.8279C105.536 80.7107 106.206 79.4273 106.609 78.051" stroke="#1F1F1F" stroke-width="3" stroke-linecap="round"/>
<path d="M77.5102 11.5396L86.5357 15.8455C106.973 25.5957 115.636 50.0672 105.886 70.5042L101.149 80.4322L92.124 76.1263C71.687 66.3762 63.0236 41.9047 72.7737 21.4677L77.5102 11.5396Z" fill="#74A60E" stroke="#1F1F1F" stroke-width="5"/>
<path d="M113.177 65.6727L102.781 83.9803C102.781 83.9803 116.706 61.5291 131.091 54.8299C135.974 52.556 144.207 50.5616 144.207 50.5616L141.355 41.4449C141.355 41.4449 130.815 44.9841 125.399 49.3441C119.194 54.3388 113.177 65.6727 113.177 65.6727Z" fill="#1F1F1F" stroke="#1F1F1F" stroke-width="4" stroke-linecap="round"/>
</svg>
