<svg width="118" height="71" viewBox="0 0 118 71" fill="none" xmlns="http://www.w3.org/2000/svg">
<path d="M7.56075 69.1952C6.65616 70.864 4.50865 71.48 2.76416 70.5709C1.01965 69.6619 0.338772 67.5721 1.24336 65.9033L7.56075 69.1952ZM116.9 30.8647C117.76 32.59 117.025 34.6345 115.258 35.4312L86.4652 48.4139C84.6983 49.2106 82.5688 48.4578 81.7087 46.7325C80.8487 45.0072 81.5838 42.9627 83.3507 42.166L108.944 30.6258L96.4863 5.63423C95.6263 3.90892 96.3614 1.86444 98.1283 1.06776C99.8952 0.271075 102.025 1.02388 102.885 2.74918L116.9 30.8647ZM4.40206 67.5492C1.24336 65.9033 1.24473 65.9007 1.24614 65.8981C1.24663 65.8972 1.24806 65.8946 1.24905 65.8928C1.25105 65.8891 1.25313 65.8853 1.25531 65.8814C1.25967 65.8735 1.26441 65.8649 1.26953 65.8558C1.27979 65.8375 1.2916 65.8166 1.30506 65.7934C1.33198 65.7468 1.36545 65.6903 1.40615 65.6239C1.48756 65.4912 1.59787 65.3193 1.74239 65.1088C2.03141 64.6877 2.4573 64.1124 3.06269 63.3884C4.27298 61.9411 6.20305 59.8968 9.19656 57.3003C15.1789 52.1113 25.4426 44.6872 42.7788 35.3918L46.3258 41.4266C29.3284 50.5403 19.5169 57.6863 14.0076 62.465C11.2552 64.8523 9.58529 66.6413 8.63205 67.7813C8.15566 68.351 7.85889 68.7579 7.6957 68.9956C7.61412 69.1144 7.56592 69.191 7.54536 69.2245C7.53509 69.2413 7.5317 69.2473 7.53451 69.2424C7.53591 69.24 7.53886 69.2348 7.54327 69.227C7.54546 69.223 7.54803 69.2184 7.55095 69.2131C7.55241 69.2105 7.55395 69.2077 7.55559 69.2047C7.5564 69.2032 7.5577 69.2008 7.5581 69.2001C7.55941 69.1976 7.56075 69.1952 4.40206 67.5492ZM42.7788 35.3918C60.6848 25.7909 78.6878 24.217 92.1486 25.0204C98.8835 25.4224 104.512 26.4207 108.474 27.3235C110.456 27.7753 112.025 28.2043 113.112 28.5248C113.656 28.6852 114.079 28.8185 114.373 28.9143C114.521 28.9622 114.636 29.0007 114.717 29.0284C114.758 29.0423 114.791 29.0535 114.815 29.0619C114.827 29.0661 114.837 29.0695 114.845 29.0723C114.849 29.0736 114.852 29.0748 114.855 29.0758C114.856 29.0763 114.858 29.0769 114.859 29.0772C114.86 29.0778 114.862 29.0783 113.701 32.3073C112.54 35.5362 112.541 35.5367 112.542 35.537C112.542 35.5371 112.543 35.5374 112.544 35.5376C112.544 35.5378 112.545 35.5379 112.544 35.5378C112.544 35.5375 112.541 35.5366 112.536 35.5349C112.526 35.5316 112.509 35.5254 112.483 35.5166C112.43 35.4989 112.346 35.4705 112.23 35.4328C111.997 35.3572 111.639 35.2442 111.164 35.1039C110.213 34.8234 108.794 34.4346 106.976 34.0202C103.336 33.1908 98.1154 32.2628 91.8548 31.8892C79.3247 31.1413 62.7534 32.6184 46.3258 41.4266L42.7788 35.3918Z" fill="#070707"/>
</svg>
