<svg width="383" height="257" viewBox="0 0 383 257" fill="none" xmlns="http://www.w3.org/2000/svg">
<path d="M1 30C1 13.4315 14.4315 0 31 0H353C369.569 0 383 13.4315 383 30V257H1V30Z" fill="#C3D6FC"/>
<path d="M0.5 129.5H382.5" stroke="#1F1F1F" stroke-width="3"/>
<rect x="201.04" y="23.6294" width="104.676" height="132.859" rx="13.5" transform="rotate(11.558 201.04 23.6294)" fill="#FEFDFB" stroke="#1F1F1F" stroke-width="3"/>
<path d="M222.106 54.0339C222.181 53.6681 222.417 52.9781 222.815 51.964C223.222 50.9517 223.615 50.0317 223.994 49.2042L223.505 47.961C224.753 47.6827 225.605 47.5903 226.063 47.6838C226.529 47.7792 226.702 48.1195 226.583 48.7047C226.517 49.0248 226.23 49.6614 225.72 50.6147L225.844 50.7113C226.904 48.88 227.923 48.0644 228.902 48.2645C229.35 48.3561 229.665 48.5634 229.846 48.8863C230.028 49.2093 230.084 49.5399 230.015 49.8782C229.912 50.3812 229.637 50.7726 229.189 51.0525C228.741 51.3325 228.142 51.3958 227.393 51.2425C226.259 51.0106 225.453 52.0605 224.976 54.3922C224.86 54.9592 224.871 55.3949 225.009 55.6993C224.351 56.0314 223.784 56.1489 223.308 56.0516C222.275 55.8403 221.874 55.1677 222.106 54.0339ZM232.804 57.9935C231.551 57.7373 230.648 57.2145 230.095 56.425C229.551 55.6374 229.392 54.6904 229.619 53.584C229.92 52.1118 230.667 51.0213 231.86 50.3126C233.063 49.5966 234.429 49.3948 235.956 49.7071C236.806 49.881 237.412 50.2049 237.772 50.6787C238.134 51.1433 238.252 51.6866 238.125 52.3084C237.951 53.1588 237.39 53.7823 236.442 54.1791C235.505 54.5686 234.171 54.5912 232.441 54.2469C232.349 54.8377 232.387 55.3266 232.556 55.7136C232.726 56.0914 232.989 56.3168 233.346 56.3897C233.703 56.4626 234.033 56.4064 234.338 56.221C234.652 56.0375 234.864 55.676 234.974 55.1365C236.309 55.4095 236.912 55.8615 236.783 56.4924C236.673 57.0319 236.24 57.4721 235.484 57.813C234.731 58.1447 233.837 58.2049 232.804 57.9935ZM235.395 51.2642C234.928 51.1688 234.451 51.3141 233.962 51.7C233.483 52.0878 233.092 52.5794 232.789 53.1749C233.718 53.2887 234.446 53.2232 234.973 52.9784C235.51 52.7263 235.818 52.4082 235.896 52.0242C235.934 51.8413 235.905 51.6782 235.811 51.5351C235.725 51.3937 235.587 51.3035 235.395 51.2642ZM238.633 55.4275C238.932 53.9645 239.679 52.874 240.874 52.1562C242.069 51.4383 243.43 51.2355 244.957 51.5478C245.743 51.7086 246.334 51.9867 246.73 52.3819C247.127 52.768 247.28 53.1851 247.188 53.6332C247.097 54.0813 246.871 54.3924 246.512 54.5665C246.161 54.7426 245.803 54.7932 245.437 54.7184C245.081 54.6455 244.771 54.4821 244.509 54.2284C244.255 53.9765 244.084 53.6509 243.994 53.2514C243.369 53.3714 242.826 53.6985 242.364 54.2328C241.912 54.769 241.624 55.3389 241.5 55.9424C241.377 56.5459 241.396 57.0594 241.557 57.4829C241.718 57.9065 241.99 58.1575 242.374 58.236C242.758 58.3146 243.096 58.2501 243.386 58.0427C243.685 57.8372 243.886 57.4829 243.989 56.98C245.324 57.253 245.927 57.705 245.798 58.336C245.687 58.8755 245.245 59.3138 244.471 59.6509C243.699 59.9789 242.76 60.0297 241.654 59.8034C240.547 59.5772 239.709 59.0628 239.14 58.2605C238.581 57.4508 238.413 56.5065 238.633 55.4275ZM253.406 51.018C253.335 51.3654 253.09 51.6298 252.672 51.811C252.256 51.9831 251.815 52.0215 251.348 51.9261C250.882 51.8307 250.53 51.6636 250.293 51.4246C250.066 51.1875 249.984 50.9135 250.047 50.6026C250.133 50.1819 250.397 49.8929 250.839 49.7356C251.281 49.5783 251.721 49.5445 252.16 49.6342C252.599 49.724 252.932 49.8874 253.16 50.1246C253.397 50.3635 253.479 50.6613 253.406 51.018ZM248.535 61.2107C247.968 61.0948 247.586 60.8689 247.388 60.533C247.189 60.1972 247.149 59.7413 247.267 59.1652C247.387 58.58 247.998 57.0807 249.102 54.6675L248.569 53.3583C249.852 52.9062 250.823 52.7475 251.481 52.8822C251.856 52.9588 252.105 53.0954 252.227 53.2917C252.35 53.479 252.376 53.7509 252.303 54.1075C252.275 54.2447 251.941 55.0148 251.301 56.4178C250.662 57.8208 250.278 58.8378 250.149 59.4687C250.02 60.0996 250.072 60.5675 250.305 60.8724C249.701 61.2157 249.111 61.3285 248.535 61.2107ZM253.131 64.6371C252.565 64.5212 252.196 64.2981 252.025 63.9679C251.862 63.6487 251.834 63.2239 251.943 62.6935C252.049 62.1723 252.375 61.1386 252.92 59.5924C253.474 58.0481 253.971 56.7351 254.411 55.6534L253.868 54.399C254.502 54.1858 255.042 54.0389 255.487 53.9585C255.934 53.8689 256.358 53.8652 256.761 53.9475C257.419 54.0822 257.66 54.5838 257.482 55.4525C257.458 55.5714 257.39 55.81 257.278 56.1683L257.402 56.2649C257.801 55.6607 258.29 55.2272 258.868 54.9643C259.447 54.6923 260.076 54.6254 260.752 54.7638C261.438 54.904 261.919 55.3262 262.194 56.0303C262.471 56.7252 262.516 57.5299 262.329 58.4443C262.078 59.6696 261.42 60.6973 260.355 61.5274C259.833 61.9351 259.189 62.2225 258.421 62.3894C257.655 62.5471 256.838 62.5372 255.969 62.3595C255.704 62.3053 255.361 62.2114 254.941 62.0778C254.848 62.3922 254.774 62.6866 254.717 62.9609C254.598 63.5461 254.654 63.9912 254.887 64.296C254.284 64.6394 253.698 64.7531 253.131 64.6371ZM256.09 59.3261L255.449 60.8527C256.561 61.0515 257.517 60.8708 258.318 60.3105C259.129 59.7429 259.62 59.043 259.79 58.2109C259.878 57.7811 259.861 57.4205 259.74 57.1289C259.629 56.8301 259.414 56.6479 259.094 56.5825C257.96 56.3506 256.959 57.2651 256.09 59.3261ZM266.384 64.8609C265.131 64.6048 264.228 64.0819 263.675 63.2924C263.132 62.5048 262.973 61.5578 263.199 60.4514C263.5 58.9792 264.247 57.8887 265.44 57.18C266.644 56.464 268.009 56.2622 269.536 56.5745C270.387 56.7484 270.992 57.0723 271.352 57.5461C271.715 58.0107 271.832 58.554 271.705 59.1758C271.531 60.0262 270.97 60.6498 270.022 61.0465C269.085 61.436 267.752 61.4586 266.021 61.1143C265.929 61.7051 265.967 62.194 266.136 62.581C266.306 62.9588 266.57 63.1842 266.926 63.2571C267.283 63.33 267.614 63.2738 267.918 63.0884C268.232 62.9049 268.444 62.5434 268.555 62.0039C269.89 62.2769 270.493 62.7289 270.364 63.3598C270.253 63.8993 269.82 64.3395 269.065 64.6804C268.311 65.0121 267.417 65.0723 266.384 64.8609ZM268.975 58.1316C268.509 58.0362 268.031 58.1815 267.543 58.5674C267.063 58.9552 266.672 59.4469 266.369 60.0423C267.299 60.1561 268.027 60.0906 268.553 59.8458C269.09 59.5937 269.398 59.2756 269.477 58.8916C269.514 58.7087 269.486 58.5456 269.391 58.4025C269.306 58.2611 269.167 58.1709 268.975 58.1316Z" fill="#1F1F1F"/>
<path fill-rule="evenodd" clip-rule="evenodd" d="M211.522 64.0731C209.762 63.7132 208.044 64.8479 207.685 66.6075C207.325 68.3671 208.459 70.0852 210.219 70.4451L276.063 83.9106C277.823 84.2705 279.541 83.1358 279.901 81.3762C280.261 79.6166 279.126 77.8985 277.366 77.5386L211.522 64.0731ZM208.771 77.5251C207.011 77.1652 205.293 78.2999 204.933 80.0595C204.574 81.8191 205.708 83.5372 207.468 83.8971L273.312 97.3626C275.072 97.7225 276.79 96.5878 277.15 94.8282C277.51 93.0686 276.375 91.3505 274.615 90.9906L208.771 77.5251ZM202.182 93.5116C202.542 91.752 204.26 90.6173 206.02 90.9771L271.864 104.443C273.624 104.803 274.758 106.521 274.399 108.28C274.039 110.04 272.321 111.175 270.561 110.815L204.717 97.3491C202.957 96.9893 201.823 95.2711 202.182 93.5116ZM203.269 104.429C201.509 104.069 199.791 105.204 199.431 106.964C199.072 108.723 200.206 110.441 201.966 110.801L267.81 124.267C269.57 124.627 271.288 123.492 271.648 121.732C272.007 119.973 270.873 118.255 269.113 117.895L203.269 104.429ZM196.68 120.416C197.04 118.656 198.758 117.521 200.518 117.881L266.362 131.347C268.122 131.707 269.256 133.425 268.897 135.184C268.537 136.944 266.819 138.079 265.059 137.719L199.215 124.253C197.455 123.893 196.321 122.175 196.68 120.416ZM197.767 131.333C196.007 130.973 194.289 132.108 193.929 133.868C193.57 135.627 194.704 137.345 196.464 137.705L262.308 151.171C264.068 151.531 265.786 150.396 266.146 148.636C266.505 146.877 265.371 145.159 263.611 144.799L197.767 131.333Z" fill="#C3D6FC"/>
<path d="M268.236 34.6726L281.985 41.7097C282.633 42.0414 283.049 42.6988 283.073 43.4264L283.564 58.8638L290.601 45.1148C290.933 44.4668 291.591 44.0502 292.318 44.027L307.756 43.5353L294.007 36.4982C293.359 36.1665 292.942 35.509 292.919 34.7815L292.427 19.3441L285.39 33.0931C285.058 33.741 284.401 34.1577 283.673 34.1808L268.236 34.6726Z" fill="#FFFB47" stroke="#1F1F1F" stroke-width="2"/>
<path d="M302.694 69.6214L310.46 73.596C311.107 73.9277 311.524 74.5852 311.547 75.3127L311.825 84.032L315.8 76.2664C316.131 75.6184 316.789 75.2018 317.516 75.1786L326.236 74.9008L318.47 70.9262C317.822 70.5945 317.405 69.937 317.382 69.2095L317.104 60.4902L313.13 68.2559C312.798 68.9038 312.141 69.3205 311.413 69.3436L302.694 69.6214Z" fill="#FFFB47" stroke="#1F1F1F" stroke-width="2"/>
<path d="M68.8732 161.879L79.8571 172.738C80.3748 173.249 81.1296 173.439 81.8279 173.234L96.6447 168.873L85.7862 179.857C85.2744 180.375 85.0843 181.13 85.2898 181.828L89.6506 196.645L78.6666 185.786C78.149 185.274 77.3942 185.084 76.6959 185.29L61.8791 189.651L72.7376 178.667C73.2494 178.149 73.4395 177.394 73.2339 176.696L68.8732 161.879Z" fill="#FFFB47" stroke="#1F1F1F" stroke-width="2"/>
<path d="M112.845 183.679L119.049 189.812C119.567 190.324 120.322 190.514 121.02 190.308L129.389 187.845L123.256 194.049C122.744 194.567 122.554 195.322 122.759 196.02L125.222 204.389L119.018 198.256C118.501 197.744 117.746 197.554 117.048 197.759L108.679 200.222L114.812 194.018C115.324 193.501 115.514 192.746 115.308 192.048L112.845 183.679Z" fill="#FFFB47" stroke="#1F1F1F" stroke-width="2"/>
<rect x="122" y="58" width="144" height="144" rx="72" fill="#C7F442"/>
<path d="M191.251 158.5V101.5H196.749V158.5H191.251ZM165.5 132.77V127.23H222.5V132.77H165.5Z" fill="#1F1F1F"/>
<rect x="122" y="58" width="144" height="144" rx="72" stroke="#1F1F1F" stroke-width="6"/>
<rect x="118" y="54" width="148" height="148" rx="74" fill="#C7F442"/>
<path d="M189.251 156.5V99.5H194.749V156.5H189.251ZM163.5 130.77V125.23H220.5V130.77H163.5Z" fill="#1F1F1F"/>
<rect x="118" y="54" width="148" height="148" rx="74" stroke="#1F1F1F" stroke-width="2"/>
<path d="M91.8426 121.205L102.574 112.436C102.574 112.436 97.0348 111.609 94.23 113.928C91.4432 116.232 91.8426 121.205 91.8426 121.205Z" fill="#FFFB47"/>
<path d="M104.733 115.099L94.0331 123.66L152.069 201.452L162.174 192.588L104.733 115.099Z" fill="#F45C4A"/>
<path d="M152.069 201.452L163.994 211.541L169.482 206.988L169.616 206.877L162.174 192.588L152.069 201.452Z" fill="#FFF8E7"/>
<path d="M163.994 211.541L174.899 218.504L170.148 207.595L169.482 206.988L163.994 211.541Z" fill="#C7F442"/>
<path d="M94.0331 123.66L104.733 115.099L102.574 112.436L91.8426 121.205L94.0331 123.66Z" fill="#1F1F1F"/>
<path d="M94.0331 123.66L104.733 115.099M94.0331 123.66L152.069 201.452M94.0331 123.66L91.8426 121.205M104.733 115.099L162.174 192.588M104.733 115.099L102.574 112.436M162.174 192.588L169.616 206.877L169.482 206.988M162.174 192.588L152.069 201.452M152.069 201.452L163.994 211.541M91.8426 121.205L102.574 112.436M91.8426 121.205C91.8426 121.205 91.4432 116.232 94.23 113.928C97.0348 111.609 102.574 112.436 102.574 112.436M163.994 211.541L174.899 218.504L170.148 207.595L169.482 206.988M163.994 211.541L169.482 206.988" stroke="#1F1F1F" stroke-width="2" stroke-linecap="round" stroke-linejoin="round"/>
</svg>
