<svg width="383" height="257" viewBox="0 0 383 257" fill="none" xmlns="http://www.w3.org/2000/svg">
<path d="M1 30C1 13.4315 14.4315 0 31 0H353C369.569 0 383 13.4315 383 30V257H1V30Z" fill="#C3D6FC"/>
<path d="M0.5 129.5H382.5" stroke="#1F1F1F" stroke-width="3"/>
<rect x="130" y="17" width="113" height="40" rx="19" fill="#FFBA39" stroke="#1F1F1F" stroke-width="2"/>
<path d="M164.592 43.256C163.728 43.256 162.939 43.112 162.224 42.824C161.509 42.5253 160.896 42.1147 160.384 41.592C159.872 41.0693 159.472 40.4507 159.184 39.736C158.896 39.0213 158.752 38.2427 158.752 37.4C158.752 36.5573 158.896 35.7787 159.184 35.064C159.472 34.3493 159.872 33.7307 160.384 33.208C160.896 32.6853 161.509 32.28 162.224 31.992C162.939 31.6933 163.728 31.544 164.592 31.544C165.787 31.544 166.827 31.8267 167.712 32.392C168.608 32.9573 169.269 33.7467 169.696 34.76L167.696 35.768C167.44 35.096 167.04 34.584 166.496 34.232C165.963 33.8693 165.328 33.688 164.592 33.688C164.08 33.688 163.605 33.7787 163.168 33.96C162.741 34.1413 162.373 34.3973 162.064 34.728C161.755 35.0587 161.515 35.4533 161.344 35.912C161.173 36.36 161.088 36.856 161.088 37.4C161.088 37.944 161.173 38.4453 161.344 38.904C161.515 39.352 161.755 39.7413 162.064 40.072C162.373 40.4027 162.741 40.6587 163.168 40.84C163.605 41.0213 164.08 41.112 164.592 41.112C165.328 41.112 165.963 40.936 166.496 40.584C167.04 40.2213 167.44 39.704 167.696 39.032L169.696 40.04C169.269 41.0533 168.608 41.8427 167.712 42.408C166.827 42.9733 165.787 43.256 164.592 43.256ZM177.356 35V36.856H174.924V43H172.876V36.856H170.444V35H177.356ZM182.873 41.304C183.182 41.304 183.465 41.2453 183.721 41.128C183.987 41.0107 184.217 40.8507 184.409 40.648C184.601 40.4453 184.75 40.2 184.857 39.912C184.963 39.624 185.017 39.3147 185.017 38.984C185.017 38.6427 184.963 38.3333 184.857 38.056C184.75 37.7787 184.601 37.5387 184.409 37.336C184.217 37.1333 183.987 36.9787 183.721 36.872C183.465 36.7547 183.182 36.696 182.873 36.696C182.563 36.696 182.275 36.7547 182.009 36.872C181.753 36.9787 181.529 37.1333 181.337 37.336C181.145 37.5387 180.995 37.7787 180.889 38.056C180.782 38.3333 180.729 38.6427 180.729 38.984C180.729 39.3147 180.782 39.624 180.889 39.912C180.995 40.2 181.145 40.4453 181.337 40.648C181.529 40.8507 181.753 41.0107 182.009 41.128C182.275 41.2453 182.563 41.304 182.873 41.304ZM183.433 43.224C182.825 43.224 182.291 43.096 181.833 42.84C181.385 42.5733 181.017 42.216 180.729 41.768V46.2H178.681V35H180.729V36.232C181.017 35.784 181.385 35.432 181.833 35.176C182.291 34.9093 182.825 34.776 183.433 34.776C183.977 34.776 184.473 34.8827 184.921 35.096C185.379 35.3093 185.769 35.608 186.089 35.992C186.419 36.3653 186.675 36.808 186.857 37.32C187.038 37.832 187.129 38.392 187.129 39C187.129 39.608 187.038 40.168 186.857 40.68C186.675 41.192 186.419 41.64 186.089 42.024C185.769 42.3973 185.379 42.6907 184.921 42.904C184.473 43.1173 183.977 43.224 183.433 43.224ZM193.684 39.464L192.324 39.528C191.577 39.56 191.06 39.6827 190.772 39.896C190.494 40.0987 190.356 40.3387 190.356 40.616C190.356 40.904 190.473 41.1333 190.708 41.304C190.942 41.4747 191.252 41.56 191.636 41.56C192.233 41.56 192.724 41.3733 193.108 41C193.492 40.616 193.684 40.1093 193.684 39.48V39.464ZM193.684 43V41.896C193.108 42.7813 192.238 43.224 191.076 43.224C190.638 43.224 190.249 43.16 189.908 43.032C189.566 42.904 189.278 42.728 189.044 42.504C188.82 42.28 188.644 42.0187 188.516 41.72C188.398 41.4213 188.34 41.1013 188.34 40.76C188.34 39.9707 188.644 39.3413 189.252 38.872C189.86 38.392 190.766 38.1307 191.972 38.088L193.684 38.024V37.96C193.684 37.512 193.534 37.1493 193.236 36.872C192.948 36.584 192.542 36.44 192.02 36.44C191.145 36.44 190.526 36.8293 190.164 37.608L188.564 36.808C188.862 36.168 189.305 35.672 189.892 35.32C190.478 34.9573 191.209 34.776 192.084 34.776C193.214 34.776 194.094 35.0693 194.724 35.656C195.353 36.2427 195.668 37.048 195.668 38.072V43H193.684ZM204.961 35V43H202.913V39.704H199.649V43H197.601V35H199.649V37.848H202.913V35H204.961ZM211.762 39.464L210.402 39.528C209.655 39.56 209.138 39.6827 208.85 39.896C208.573 40.0987 208.434 40.3387 208.434 40.616C208.434 40.904 208.551 41.1333 208.786 41.304C209.021 41.4747 209.33 41.56 209.714 41.56C210.311 41.56 210.802 41.3733 211.186 41C211.57 40.616 211.762 40.1093 211.762 39.48V39.464ZM211.762 43V41.896C211.186 42.7813 210.317 43.224 209.154 43.224C208.717 43.224 208.327 43.16 207.986 43.032C207.645 42.904 207.357 42.728 207.122 42.504C206.898 42.28 206.722 42.0187 206.594 41.72C206.477 41.4213 206.418 41.1013 206.418 40.76C206.418 39.9707 206.722 39.3413 207.33 38.872C207.938 38.392 208.845 38.1307 210.05 38.088L211.762 38.024V37.96C211.762 37.512 211.613 37.1493 211.314 36.872C211.026 36.584 210.621 36.44 210.098 36.44C209.223 36.44 208.605 36.8293 208.242 37.608L206.642 36.808C206.941 36.168 207.383 35.672 207.97 35.32C208.557 34.9573 209.287 34.776 210.162 34.776C211.293 34.776 212.173 35.0693 212.802 35.656C213.431 36.2427 213.746 37.048 213.746 38.072V43H211.762Z" fill="#1F1F1F"/>
<rect x="11" y="110" width="113" height="40" rx="19" fill="#FFFB47" stroke="#1F1F1F" stroke-width="2"/>
<path d="M40.568 129.24H42.744C43.2773 129.24 43.6987 129.08 44.008 128.76C44.328 128.44 44.488 128.029 44.488 127.528C44.488 127.027 44.328 126.616 44.008 126.296C43.6987 125.976 43.2773 125.816 42.744 125.816H40.568V129.24ZM38.36 135V123.8H42.872C43.448 123.8 43.9707 123.891 44.44 124.072C44.92 124.243 45.3307 124.493 45.672 124.824C46.024 125.155 46.2907 125.549 46.472 126.008C46.664 126.456 46.76 126.963 46.76 127.528C46.76 128.093 46.664 128.605 46.472 129.064C46.2907 129.523 46.024 129.917 45.672 130.248C45.3307 130.568 44.92 130.819 44.44 131C43.9707 131.171 43.448 131.256 42.872 131.256H40.568V135H38.36ZM50.0154 130.104H54.0474C53.962 129.613 53.7487 129.224 53.4074 128.936C53.0767 128.648 52.65 128.504 52.1274 128.504C51.594 128.504 51.1407 128.648 50.7674 128.936C50.4047 129.224 50.154 129.613 50.0154 130.104ZM52.2394 135.224C51.5994 135.224 51.0127 135.123 50.4794 134.92C49.9567 134.707 49.5034 134.413 49.1194 134.04C48.7354 133.667 48.4367 133.219 48.2234 132.696C48.0207 132.173 47.9194 131.603 47.9194 130.984C47.9194 130.355 48.026 129.784 48.2394 129.272C48.4527 128.749 48.746 128.307 49.1194 127.944C49.4927 127.571 49.9407 127.283 50.4634 127.08C50.986 126.877 51.5514 126.776 52.1594 126.776C52.7567 126.776 53.2954 126.872 53.7754 127.064C54.266 127.256 54.682 127.528 55.0234 127.88C55.3754 128.232 55.6474 128.653 55.8394 129.144C56.0314 129.624 56.1274 130.157 56.1274 130.744C56.1274 130.861 56.122 130.989 56.1114 131.128C56.1007 131.267 56.0847 131.416 56.0634 131.576H49.9674C50.0847 132.141 50.3407 132.595 50.7354 132.936C51.13 133.267 51.6367 133.432 52.2554 133.432C52.7034 133.432 53.1034 133.341 53.4554 133.16C53.8074 132.968 54.09 132.685 54.3034 132.312L55.7594 133.464C55.354 134.04 54.8527 134.477 54.2554 134.776C53.6687 135.075 52.9967 135.224 52.2394 135.224ZM59.7268 127V132.056L63.0548 127H65.1348V135H63.0868V129.944L59.7588 135H57.6788V127H59.7268ZM61.3908 125.656C60.5374 125.656 59.8494 125.427 59.3268 124.968C58.8041 124.499 58.5108 123.859 58.4468 123.048H60.1428C60.1748 123.411 60.3028 123.693 60.5268 123.896C60.7614 124.088 61.0494 124.184 61.3908 124.184C61.7321 124.184 62.0201 124.088 62.2548 123.896C62.4894 123.693 62.6281 123.411 62.6708 123.048H64.3668C64.3028 123.859 64.0041 124.499 63.4708 124.968C62.9374 125.427 62.2441 125.656 61.3908 125.656ZM73.2938 127V128.856H70.8618V135H68.8138V128.856H66.3818V127H73.2938ZM76.5861 127V132.056L79.9141 127H81.9941V135H79.9461V129.944L76.6181 135H74.5381V127H76.5861ZM91.2731 127V135H89.2251V131.704H85.9611V135H83.9131V127H85.9611V129.848H89.2251V127H91.2731ZM93.2904 127H98.6664V128.856H95.3384V135H93.2904V127Z" fill="#1F1F1F"/>
<rect x="130" y="198" width="113" height="40" rx="19" fill="#C7F442" stroke="#1F1F1F" stroke-width="2"/>
<path d="M143.496 224V216.256L138.744 224H136.248V212.8H138.52V220.544L143.272 212.8H145.768V224H143.496ZM155.336 216V224H153.288V220.704H150.024V224H147.976V216H150.024V218.848H153.288V216H155.336ZM157.353 216H162.729V217.856H159.401V224H157.353V216ZM168.248 222.304C168.557 222.304 168.84 222.245 169.096 222.128C169.362 222.011 169.592 221.851 169.784 221.648C169.976 221.445 170.125 221.2 170.232 220.912C170.338 220.624 170.392 220.315 170.392 219.984C170.392 219.643 170.338 219.333 170.232 219.056C170.125 218.779 169.976 218.539 169.784 218.336C169.592 218.133 169.362 217.979 169.096 217.872C168.84 217.755 168.557 217.696 168.248 217.696C167.938 217.696 167.65 217.755 167.384 217.872C167.128 217.979 166.904 218.133 166.712 218.336C166.52 218.539 166.37 218.779 166.264 219.056C166.157 219.333 166.104 219.643 166.104 219.984C166.104 220.315 166.157 220.624 166.264 220.912C166.37 221.2 166.52 221.445 166.712 221.648C166.904 221.851 167.128 222.011 167.384 222.128C167.65 222.245 167.938 222.304 168.248 222.304ZM168.808 224.224C168.2 224.224 167.666 224.096 167.208 223.84C166.76 223.573 166.392 223.216 166.104 222.768V227.2H164.056V216H166.104V217.232C166.392 216.784 166.76 216.432 167.208 216.176C167.666 215.909 168.2 215.776 168.808 215.776C169.352 215.776 169.848 215.883 170.296 216.096C170.754 216.309 171.144 216.608 171.464 216.992C171.794 217.365 172.05 217.808 172.232 218.32C172.413 218.832 172.504 219.392 172.504 220C172.504 220.608 172.413 221.168 172.232 221.68C172.05 222.192 171.794 222.64 171.464 223.024C171.144 223.397 170.754 223.691 170.296 223.904C169.848 224.117 169.352 224.224 168.808 224.224ZM175.875 219.104H179.907C179.821 218.613 179.608 218.224 179.267 217.936C178.936 217.648 178.509 217.504 177.987 217.504C177.453 217.504 177 217.648 176.627 217.936C176.264 218.224 176.013 218.613 175.875 219.104ZM178.099 224.224C177.459 224.224 176.872 224.123 176.339 223.92C175.816 223.707 175.363 223.413 174.979 223.04C174.595 222.667 174.296 222.219 174.083 221.696C173.88 221.173 173.779 220.603 173.779 219.984C173.779 219.355 173.885 218.784 174.099 218.272C174.312 217.749 174.605 217.307 174.979 216.944C175.352 216.571 175.8 216.283 176.323 216.08C176.845 215.877 177.411 215.776 178.019 215.776C178.616 215.776 179.155 215.872 179.635 216.064C180.125 216.256 180.541 216.528 180.883 216.88C181.235 217.232 181.507 217.653 181.699 218.144C181.891 218.624 181.987 219.157 181.987 219.744C181.987 219.861 181.981 219.989 181.971 220.128C181.96 220.267 181.944 220.416 181.923 220.576H175.827C175.944 221.141 176.2 221.595 176.595 221.936C176.989 222.267 177.496 222.432 178.115 222.432C178.563 222.432 178.963 222.341 179.315 222.16C179.667 221.968 179.949 221.685 180.163 221.312L181.619 222.464C181.213 223.04 180.712 223.477 180.115 223.776C179.528 224.075 178.856 224.224 178.099 224.224ZM188.77 222.144V217.856H186.338V218.48C186.338 218.96 186.327 219.387 186.306 219.76C186.285 220.123 186.253 220.448 186.21 220.736C186.178 221.024 186.13 221.28 186.066 221.504C186.013 221.728 185.949 221.941 185.874 222.144H188.77ZM182.994 225.92V222.144H183.826C183.922 221.984 184.002 221.797 184.066 221.584C184.141 221.36 184.205 221.083 184.258 220.752C184.311 220.411 184.349 220 184.37 219.52C184.402 219.04 184.418 218.464 184.418 217.792V216H190.818V222.144H192.002V225.92H190.018V224H184.978V225.92H182.994ZM195.43 216V221.056L198.758 216H200.838V224H198.79V218.944L195.462 224H193.382V216H195.43ZM204.453 219.104H208.485C208.4 218.613 208.186 218.224 207.845 217.936C207.514 217.648 207.088 217.504 206.565 217.504C206.032 217.504 205.578 217.648 205.205 217.936C204.842 218.224 204.592 218.613 204.453 219.104ZM206.677 224.224C206.037 224.224 205.45 224.123 204.917 223.92C204.394 223.707 203.941 223.413 203.557 223.04C203.173 222.667 202.874 222.219 202.661 221.696C202.458 221.173 202.357 220.603 202.357 219.984C202.357 219.355 202.464 218.784 202.677 218.272C202.89 217.749 203.184 217.307 203.557 216.944C203.93 216.571 204.378 216.283 204.901 216.08C205.424 215.877 205.989 215.776 206.597 215.776C207.194 215.776 207.733 215.872 208.213 216.064C208.704 216.256 209.12 216.528 209.461 216.88C209.813 217.232 210.085 217.653 210.277 218.144C210.469 218.624 210.565 219.157 210.565 219.744C210.565 219.861 210.56 219.989 210.549 220.128C210.538 220.267 210.522 220.416 210.501 220.576H204.405C204.522 221.141 204.778 221.595 205.173 221.936C205.568 222.267 206.074 222.432 206.693 222.432C207.141 222.432 207.541 222.341 207.893 222.16C208.245 221.968 208.528 221.685 208.741 221.312L210.197 222.464C209.792 223.04 209.29 223.477 208.693 223.776C208.106 224.075 207.434 224.224 206.677 224.224ZM219.476 216V224H217.428V220.704H214.164V224H212.116V216H214.164V218.848H217.428V216H219.476ZM227.638 216V217.856H225.206V224H223.158V217.856H220.726V216H227.638ZM236.722 216H238.77V224H236.722V216ZM230.802 222.272H232.53C232.903 222.272 233.197 222.171 233.41 221.968C233.623 221.765 233.73 221.499 233.73 221.168C233.73 220.837 233.623 220.571 233.41 220.368C233.197 220.165 232.903 220.064 232.53 220.064H230.802V222.272ZM232.786 224H228.882V216H230.802V218.336H232.786C233.223 218.336 233.618 218.411 233.97 218.56C234.333 218.699 234.637 218.896 234.882 219.152C235.138 219.397 235.335 219.696 235.474 220.048C235.613 220.389 235.682 220.763 235.682 221.168C235.682 221.573 235.613 221.952 235.474 222.304C235.335 222.645 235.138 222.944 234.882 223.2C234.637 223.445 234.333 223.643 233.97 223.792C233.618 223.931 233.223 224 232.786 224Z" fill="#1F1F1F"/>
<rect x="249" y="110" width="113" height="40" rx="19" fill="#F87D5B" stroke="#1F1F1F" stroke-width="2"/>
<path d="M290.44 130.2V133.048H293.016C293.475 133.048 293.843 132.92 294.12 132.664C294.408 132.408 294.552 132.061 294.552 131.624C294.552 131.187 294.408 130.84 294.12 130.584C293.843 130.328 293.475 130.2 293.016 130.2H290.44ZM290.44 128.312H292.744C293.139 128.312 293.464 128.195 293.72 127.96C293.976 127.725 294.104 127.416 294.104 127.032C294.104 126.648 293.976 126.339 293.72 126.104C293.464 125.869 293.139 125.752 292.744 125.752H290.44V128.312ZM288.232 123.8H292.952C293.453 123.8 293.912 123.869 294.328 124.008C294.755 124.136 295.117 124.328 295.416 124.584C295.725 124.84 295.96 125.149 296.12 125.512C296.291 125.864 296.376 126.264 296.376 126.712C296.376 127.288 296.237 127.784 295.96 128.2C295.683 128.616 295.288 128.925 294.776 129.128C295.459 129.331 295.971 129.667 296.312 130.136C296.653 130.595 296.824 131.165 296.824 131.848C296.824 132.317 296.739 132.744 296.568 133.128C296.408 133.512 296.173 133.843 295.864 134.12C295.555 134.397 295.171 134.616 294.712 134.776C294.264 134.925 293.757 135 293.192 135H288.232V123.8ZM301.469 131.768H300.429V135H298.413V127H300.429V129.944H301.533L303.677 127H305.885L303.005 130.808L305.965 135H303.629L301.469 131.768ZM309.643 134.92L306.459 127H308.603L310.635 132.504L312.603 127H314.747L310.379 138.2H308.363L309.643 134.92ZM319.832 135.224C319.213 135.224 318.642 135.123 318.12 134.92C317.597 134.707 317.149 134.413 316.776 134.04C316.402 133.667 316.109 133.224 315.896 132.712C315.682 132.189 315.576 131.619 315.576 131C315.576 130.381 315.682 129.816 315.896 129.304C316.109 128.781 316.402 128.333 316.776 127.96C317.149 127.587 317.597 127.299 318.12 127.096C318.642 126.883 319.213 126.776 319.832 126.776C320.717 126.776 321.485 126.984 322.136 127.4C322.786 127.816 323.266 128.397 323.576 129.144L321.768 130.04C321.586 129.603 321.33 129.272 321 129.048C320.669 128.813 320.28 128.696 319.832 128.696C319.512 128.696 319.218 128.755 318.952 128.872C318.696 128.979 318.472 129.139 318.28 129.352C318.098 129.555 317.954 129.795 317.848 130.072C317.741 130.349 317.688 130.659 317.688 131C317.688 131.331 317.741 131.64 317.848 131.928C317.954 132.205 318.098 132.451 318.28 132.664C318.472 132.867 318.696 133.027 318.952 133.144C319.218 133.251 319.512 133.304 319.832 133.304C320.28 133.304 320.669 133.192 321 132.968C321.33 132.733 321.586 132.397 321.768 131.96L323.576 132.856C323.266 133.603 322.786 134.184 322.136 134.6C321.485 135.016 320.717 135.224 319.832 135.224Z" fill="#1F1F1F"/>
<path d="M236.444 122.222C236.444 136.085 230.828 148.635 221.747 157.722C212.658 166.818 200.097 172.444 186.222 172.444C158.485 172.444 136 149.959 136 122.222C136 94.4852 158.485 72 186.222 72C213.959 72 236.444 94.4852 236.444 122.222Z" fill="#FFF8E7"/>
<path d="M186.222 90.8333C203.558 90.8333 217.611 104.887 217.611 122.222M221.747 157.722L249 185M221.747 157.722C230.828 148.635 236.444 136.085 236.444 122.222M221.747 157.722C212.658 166.818 200.097 172.444 186.222 172.444M236.444 122.222C236.444 149.959 213.959 172.444 186.222 172.444M236.444 122.222C236.444 94.4852 213.959 72 186.222 72C158.485 72 136 94.4852 136 122.222C136 149.959 158.485 172.444 186.222 172.444" stroke="#1F1F1F" stroke-width="6" stroke-linecap="round" stroke-linejoin="round"/>
<path d="M164.47 124.782L169.118 130.852L169.258 131.035L169.487 131.047L177.12 131.47L171.05 136.118L170.868 136.258L170.855 136.487L170.432 144.12L165.785 138.05L165.645 137.868L165.415 137.855L157.782 137.432L163.852 132.784L164.035 132.645L164.047 132.415L164.47 124.782Z" fill="#FFFB47" stroke="#1F1F1F"/>
<path d="M144.359 135.447L154.893 149.205L155.033 149.388L155.263 149.4L172.563 150.359L158.806 160.893L158.623 161.033L158.61 161.263L157.652 178.563L147.118 164.806L146.978 164.623L146.748 164.61L129.447 163.652L143.205 153.118L143.388 152.978L143.4 152.748L144.359 135.447Z" fill="#FFFB47" stroke="#1F1F1F"/>
<path d="M199.577 56.6649L207.248 66.6838L207.388 66.8663L207.618 66.879L220.217 67.5773L210.198 75.2484L210.015 75.3882L210.003 75.6177L209.304 88.2168L201.633 78.198L201.494 78.0154L201.264 78.0027L188.665 77.3045L198.684 69.6333L198.866 69.4935L198.879 69.264L199.577 56.6649Z" fill="#FFFB47" stroke="#1F1F1F"/>
</svg>
