<svg width="1627" height="677" viewBox="0 0 1627 677" fill="none" xmlns="http://www.w3.org/2000/svg">
<path d="M1625 338.5C1625 384.539 1602.58 428.581 1561.67 468.834C1520.75 509.093 1461.43 545.441 1387.96 576.009C1241.05 637.142 1037.94 675 813.5 675C589.056 675 385.954 637.142 239.037 576.009C165.574 545.441 106.255 509.093 65.3315 468.834C24.4152 428.581 2 384.539 2 338.5C2 292.461 24.4152 248.419 65.3315 208.166C106.255 167.907 165.574 131.559 239.037 100.991C385.954 39.8583 589.056 2 813.5 2C1037.94 2 1241.05 39.8583 1387.96 100.991C1461.43 131.559 1520.75 167.907 1561.67 208.166C1602.58 248.419 1625 292.461 1625 338.5Z" fill="#FFBA39" stroke="#1F1F1F" stroke-width="4"/>
</svg>
