<svg width="167" height="161" viewBox="0 0 167 161" fill="none" xmlns="http://www.w3.org/2000/svg">
<path d="M93.9783 94.3719C93.7261 92.9524 94.674 91.5994 96.0932 91.3496L130.015 85.3689C131.429 85.1063 132.788 86.0646 133.037 87.4838C133.289 88.9033 132.342 90.2562 130.922 90.5061L97.0006 96.4868C96.8476 96.5148 96.6946 96.5275 96.5446 96.5275C95.3009 96.5275 94.2001 95.6381 93.9783 94.3719Z" fill="#1F1F1F"/>
<path fill-rule="evenodd" clip-rule="evenodd" d="M93.9783 81.325C93.7261 79.9055 94.674 78.5525 96.0932 78.3027L130.015 72.322C131.429 72.0545 132.788 73.0177 133.037 74.4369C133.289 75.8564 132.342 77.2094 130.922 77.4592L97.0006 83.4399C96.8476 83.4679 96.6946 83.4807 96.5446 83.4807C95.3009 83.4807 94.2001 82.5912 93.9783 81.325ZM93.9783 68.2781C93.7261 66.8586 94.674 65.5057 96.0932 65.2558L130.015 59.2751C131.429 59.0126 132.788 59.9708 133.037 61.39C133.289 62.8095 132.342 64.1625 130.922 64.4123L97.0006 70.393C96.8476 70.4211 96.6946 70.4338 96.5446 70.4338C95.3009 70.4338 94.2001 69.5443 93.9783 68.2781ZM93.9783 55.2313C93.7261 53.8118 94.674 52.4588 96.0932 52.2089L130.015 46.2283C131.429 45.9608 132.788 46.924 133.037 48.3432C133.289 49.7627 132.342 51.1156 130.922 51.3655L97.0006 57.3461C96.8476 57.3742 96.6946 57.3869 96.5446 57.3869C95.3009 57.3869 94.2001 56.4975 93.9783 55.2313Z" fill="#1F1F1F"/>
<path fill-rule="evenodd" clip-rule="evenodd" d="M148.734 48.7969H146.125V34.1266C146.125 29.2252 141.682 25.5747 136.957 26.4133L83.4997 35.7105L30.0639 26.2884C25.2979 25.4338 20.875 29.1143 20.875 33.9968V48.7969H18.2656C15.3836 48.7969 13.0469 51.1332 13.0469 54.0156V114.031C13.0469 116.913 15.3836 119.25 18.2656 119.25H60.911C65.2394 119.25 67.294 121.307 69.8153 123.831L69.8303 123.846C69.8884 123.904 69.9467 123.962 70.0053 124.021C71.9626 125.978 74.6177 127.078 77.3856 127.078H89.6138C92.382 127.078 95.0367 125.978 96.9941 124.021C97.0549 123.96 97.1155 123.899 97.1758 123.839L97.1901 123.825C99.7079 121.304 101.76 119.25 106.088 119.25H148.734C151.616 119.25 153.953 116.913 153.953 114.031V54.0156C153.953 51.1332 151.616 48.7969 148.734 48.7969ZM140.906 34.127C140.906 32.4648 139.4 31.2791 137.851 31.5557L86.1094 40.5535V110.922L138.751 101.642C139.999 101.42 140.906 100.34 140.906 99.0707V34.127ZM29.1568 31.4256C27.5439 31.1484 26.0938 32.3816 26.0938 33.9968V99.0707C26.0938 100.34 27.0008 101.42 28.2494 101.642L80.8906 110.922V40.5483L29.1568 31.4256Z" fill="#1F1F1F"/>
<path d="M26.0938 33.9968C26.0938 32.3816 27.5439 31.1484 29.1568 31.4256L80.8906 40.5483V110.922L28.2494 101.642C27.0008 101.42 26.0938 100.34 26.0938 99.0707V33.9968Z" fill="#FEFDFB"/>
<path fill-rule="evenodd" clip-rule="evenodd" d="M137.851 31.5557C139.4 31.2791 140.906 32.4648 140.906 34.127V99.0707C140.906 100.34 139.999 101.42 138.751 101.642L86.1094 110.922V40.5535L137.851 31.5557ZM96.0932 78.3027C94.674 78.5525 93.7261 79.9055 93.9783 81.325C94.2001 82.5912 95.3009 83.4807 96.5446 83.4807C96.6946 83.4807 96.8476 83.4679 97.0006 83.4399L130.922 77.4592C132.342 77.2094 133.289 75.8564 133.037 74.4369C132.788 73.0177 131.429 72.0545 130.015 72.322L96.0932 78.3027ZM96.0932 65.2558C94.674 65.5057 93.7261 66.8586 93.9783 68.2781C94.2001 69.5443 95.3009 70.4338 96.5446 70.4338C96.6946 70.4338 96.8476 70.4211 97.0006 70.393L130.922 64.4123C132.342 64.1625 133.289 62.8095 133.037 61.39C132.788 59.9708 131.429 59.0126 130.015 59.2751L96.0932 65.2558ZM96.0932 52.2089C94.674 52.4588 93.7261 53.8118 93.9783 55.2313C94.2001 56.4975 95.3009 57.3869 96.5446 57.3869C96.6946 57.3869 96.8476 57.3742 97.0006 57.3461L130.922 51.3655C132.342 51.1156 133.289 49.7627 133.037 48.3432C132.788 46.924 131.429 45.9608 130.015 46.2283L96.0932 52.2089ZM96.0932 91.3496C94.674 91.5994 93.7261 92.9524 93.9783 94.3719C94.2001 95.6381 95.3009 96.5275 96.5446 96.5275C96.6946 96.5275 96.8476 96.5148 97.0006 96.4868L130.922 90.5061C132.342 90.2562 133.289 88.9033 133.037 87.4838C132.788 86.0646 131.429 85.1063 130.015 85.3689L96.0932 91.3496Z" fill="#FEFDFB"/>
<path d="M78.3437 64.4282C78.3437 64.4282 77.4971 63.1675 76.3733 61.8428C68.2373 52.2439 56.5349 45.7588 43.3317 44.4567C41.7129 44.2964 40.3642 44.3111 40.3642 44.3111C39.8554 44.2856 39.3576 44.4704 38.9878 44.822C38.6195 45.1736 38.41 45.662 38.41 46.1716V48.9271V60.1266V90.0837C38.41 90.8464 38.8322 91.5467 39.5061 91.9033C40.1801 92.2599 40.9967 92.2148 41.6271 91.786L66.3959 74.9319L75.9235 68.4489L77.909 67.0972C78.3327 66.8098 78.618 66.3614 78.7003 65.8563C78.7825 65.3511 78.653 64.8351 78.3437 64.4282ZM43.9977 65.9626C43.9977 64.1001 45.508 62.5904 47.3698 62.5904C49.2331 62.5904 50.7427 64.1 50.7427 65.9626C50.7427 67.8252 49.2331 69.3354 47.3698 69.3354C45.508 69.3354 43.9977 67.8251 43.9977 65.9626ZM50.916 79.5392C49.7696 79.5392 48.8401 78.6097 48.8401 77.464C48.8401 76.3177 49.7696 75.3882 50.916 75.3882C52.0616 75.3882 52.9911 76.3176 52.9911 77.464C52.991 78.6097 52.0616 79.5392 50.916 79.5392ZM55.4751 73.0227L54.8725 70.8566L60.5374 69.2801L61.1408 71.4462L55.4751 73.0227ZM67.2402 69.7554C60.9326 62.2505 51.9567 57.5012 42.2152 56.5135V48.1775C54.6862 49.2154 66.2052 55.3178 74.1141 65.0775L67.2402 69.7554Z" fill="#1F1F1F"/>
</svg>
