<svg width="145" height="143" viewBox="0 0 145 143" fill="none" xmlns="http://www.w3.org/2000/svg">
<circle cx="74.1051" cy="72.1051" r="59.4203" transform="rotate(-8.18499 74.1051 72.1051)" fill="#FFFB47" stroke="#1F1F1F" stroke-width="5"/>
<path d="M110.957 72.1914C111.642 76.9535 111.382 81.8039 110.193 86.4657C109.003 91.1274 106.907 95.5092 104.024 99.3609C101.141 103.213 97.5276 106.459 93.3901 108.914C89.2526 111.369 84.672 112.985 79.9099 113.67C75.1478 114.355 70.2973 114.095 65.6356 112.906C60.9739 111.716 56.5921 109.62 52.7404 106.737C48.8887 103.854 45.6426 100.241 43.1874 96.1034C40.7322 91.9659 39.116 87.3853 38.431 82.6232" stroke="#1F1F1F" stroke-width="5" stroke-linecap="round"/>
<circle cx="51.6956" cy="64.0729" r="5.16002" transform="rotate(6.81502 51.6956 64.0729)" fill="#1F1F1F"/>
<circle cx="91.176" cy="58.3976" r="5.16002" transform="rotate(6.81502 91.176 58.3976)" fill="#1F1F1F"/>
<circle cx="70.1051" cy="70.1051" r="59.4203" transform="rotate(-8.18499 70.1051 70.1051)" fill="#FFFB47" stroke="#1F1F1F" stroke-width="5"/>
<path d="M106.957 70.1914C107.642 74.9536 107.382 79.804 106.193 84.4657C105.003 89.1275 102.907 93.5093 100.024 97.3609C97.141 101.213 93.5276 104.459 89.3901 106.914C85.2526 109.369 80.672 110.985 75.9099 111.67C71.1478 112.355 66.2973 112.096 61.6356 110.906C56.9739 109.716 52.5921 107.62 48.7404 104.737C44.8887 101.854 41.6426 98.2409 39.1874 94.1034C36.7322 89.9659 35.116 85.3853 34.431 80.6232" stroke="#1F1F1F" stroke-width="5" stroke-linecap="round"/>
<circle cx="47.6956" cy="62.0729" r="5.16002" transform="rotate(6.81502 47.6956 62.0729)" fill="#1F1F1F"/>
<circle cx="87.176" cy="56.3977" r="5.16002" transform="rotate(6.81502 87.176 56.3977)" fill="#1F1F1F"/>
</svg>
