<svg width="1915" height="966" viewBox="0 0 1915 966" fill="none" xmlns="http://www.w3.org/2000/svg">
<path d="M481 2.98023e-05C240.263 2.98023e-05 0 215.59 0 215.59V965.903C0 965.903 171.529 821.843 274 821.843C409.5 821.843 702.284 965.903 851.5 965.903C1000.72 965.903 1188.49 833.045 1425.5 821.843C1720.02 807.923 1920 965.903 1920 965.903V144.06C1920 144.06 1814.5 5.34058e-05 1618 0C1397.75 -5.98612e-05 1295.9 168.651 1076 164.119C866.618 159.803 737.5 2.98023e-05 481 2.98023e-05Z" fill="#DEE5FF"/>
</svg>
