<svg width="211" height="212" viewBox="0 0 211 212" fill="none" xmlns="http://www.w3.org/2000/svg">
<circle cx="105.5" cy="106" r="105.5" fill="#C3D6FC"/>
<rect x="84.8188" y="30" width="79.795" height="114.585" rx="15" transform="rotate(8.94626 84.8188 30)" fill="#FEFDFB"/>
<path fill-rule="evenodd" clip-rule="evenodd" d="M95.8564 58.1572C94.3601 57.9217 92.9561 58.9437 92.7205 60.4401C92.485 61.9364 93.507 63.3404 95.0034 63.576L143.545 71.2175C145.041 71.4531 146.445 70.431 146.681 68.9347C146.916 67.4383 145.894 66.0344 144.398 65.7988L95.8564 58.1572ZM94.0556 69.5967C92.5593 69.3611 91.1553 70.3832 90.9197 71.8795C90.6842 73.3759 91.7062 74.7799 93.2026 75.0154L141.744 82.657C143.24 82.8925 144.644 81.8705 144.88 80.3741C145.116 78.8778 144.093 77.4738 142.597 77.2382L94.0556 69.5967ZM89.1191 83.3191C89.3546 81.8227 90.7586 80.8007 92.2549 81.0362L140.796 88.6778C142.293 88.9133 143.315 90.3173 143.079 91.8137C142.844 93.31 141.44 94.3321 139.943 94.0965L91.4019 86.455C89.9056 86.2194 88.8835 84.8154 89.1191 83.3191ZM90.4541 92.4758C88.9578 92.2402 87.5538 93.2623 87.3183 94.7586C87.0827 96.2549 88.1048 97.6589 89.6011 97.8945L138.143 105.536C139.639 105.772 141.043 104.75 141.278 103.253C141.514 101.757 140.492 100.353 138.996 100.117L90.4541 92.4758ZM85.5174 106.198C85.753 104.702 87.157 103.68 88.6533 103.915L137.195 111.557C138.691 111.792 139.713 113.196 139.478 114.693C139.242 116.189 137.838 117.211 136.342 116.976L87.8003 109.334C86.304 109.098 85.2819 107.694 85.5174 106.198ZM86.8521 115.355C85.3558 115.119 83.9518 116.141 83.7162 117.638C83.4807 119.134 84.5027 120.538 85.9991 120.774L134.541 128.415C136.037 128.651 137.441 127.629 137.676 126.132C137.912 124.636 136.89 123.232 135.394 122.996L86.8521 115.355Z" fill="#1F1F1F" fill-opacity="0.71"/>
<path d="M82.25 82.4445H59V166.167C59 178.778 69.4094 189 82.25 189H128.75C141.591 189 152 178.778 152 166.167V82.4445H128.75H82.25Z" fill="#F87D5B"/>
<path d="M90 112.889V158.556M121 112.889V158.556M43.5 82.4445H167.5M59 82.4445V166.167C59 178.778 69.4094 189 82.25 189H128.75C141.591 189 152 178.778 152 166.167V82.4445M59 82.4445H152M59 82.4445H82.25H128.75H152" stroke="#1F1F1F" stroke-width="8" stroke-linecap="round" stroke-linejoin="round"/>
</svg>
